<?xml version="1.0" encoding="UTF-8" standalone="no"?>
<!-- Generator: Adobe Illustrator 22.0.0, SVG Export Plug-In . SVG Version: 6.00 Build 0)  -->

<svg
   version="1.1"
   id="Layer_1"
   x="0px"
   y="0px"
   viewBox="0 0 1133.9 1133.9"
   style="enable-background:new 0 0 1133.9 1133.9;"
   xml:space="preserve"
   sodipodi:docname="leaf-red.svg"
   inkscape:version="1.1 (c68e22c387, 2021-05-23)"
   xmlns:inkscape="http://www.inkscape.org/namespaces/inkscape"
   xmlns:sodipodi="http://sodipodi.sourceforge.net/DTD/sodipodi-0.dtd"
   xmlns="http://www.w3.org/2000/svg"
   xmlns:svg="http://www.w3.org/2000/svg"><defs
   id="defs9"><clipPath
     clipPathUnits="userSpaceOnUse"
     id="clipPath5214"><path
       style="color:#000000;fill:#000000;-inkscape-stroke:none"
       d="m -762.59124,599.47124 -264.01556,163.09961 v -22.53711 l 191.19525,-127.37891 -1.10937,-1.66406 -192.08588,127.9707 v 27.19531 l 267.06634,-164.98242 z m -116.36914,-727.94922 -0.44922,1.89648 c 32.80065,16.27551 53.93755,30.156316 67.12696,45.261716 13.18941,15.1054 18.52637,31.43586 19.71875,52.998048 2.77773,50.098413 -24.09424,114.635305 -52.57617,165.882816 -14.24097,25.62375 -28.87424,47.93963 -40.35352,63.50195 -5.73964,7.78117 -10.6947,13.87716 -14.39258,17.83203 -1.84894,1.97744 -3.39251,3.42299 -4.50586,4.24805 -0.55667,0.41253 -1.01104,0.66391 -1.26758,0.75586 -0.25654,0.092 -0.16054,0.005 0.002,0.12891 l -1.48633,1.27343 c 9.89611,18.19285 34.05194,63.12739 58.73633,106.15625 12.34219,21.51444 24.81518,42.55273 35.71484,59.54688 9.53146,14.86092 17.66394,26.2648 23.75,32.63476 -10.17354,-3.49134 -21.31904,-13.23398 -32.77734,-26.51757 -12.77479,-14.8098 -25.96529,-33.88418 -38.98047,-53.09766 -13.01518,-19.21348 -25.85649,-38.56531 -37.98828,-53.97656 -12.1318,-15.41126 -23.4794,-26.93202 -33.96485,-30.375 l -1.06054,-0.34766 -0.23047,1.0918 c -15.90583,75.7158 4.01743,134.46461 30.05273,188.80078 26.0353,54.33617 58.12828,104.32437 66.9375,162.75391 l 0.26758,1.77929 1.36914,-1.16601 c 56.97587,-48.54244 94.07424,-123.89258 109.33399,-202.97266 14.09961,-73.06796 9.51644,-149.30937 -15.3711,-210.6582 43.92654,76.31581 52.74882,137.3541 44.08594,197.30078 -9.18333,63.54814 -38.07311,125.93427 -65.74024,203.73242 l -1.16406,3.27734 2.72852,-2.15625 c 82.34414,-65.13491 164.41056,-141.38918 219.29687,-267.98828 l -1.66797,-1.05859 c -16.40007,18.60008 -31.61222,35.84612 -45.86718,47.39648 -13.64992,11.06012 -26.27173,16.72083 -38.28907,13.84375 73.84994,-76.69181 78.06577,-194.56248 46.45508,-289.39453 l -0.625,-1.87305 -1.14062,1.61133 c -18.28678,25.85042 -21.36946,55.66951 -37.16211,83.28321 10.15881,-69.2932 -14.98681,-146.762405 -61.71485,-207.615241 -47.91002,-62.392123 -118.47162,-107.338819 -196.80078,-107.791009 z m 4.38867,2.18164 c 75.80816,2.07643 144.1154,46.000296 190.82422,106.828119 47.61488,62.007757 72.73413,141.424881 60.59571,211.320321 l 1.83007,0.70507 c 18.14423,-28.69549 20.76181,-59.59096 38.54102,-85.9375 30.86701,94.48065 26.0154,211.20627 -47.80078,286.60352 l -1.15039,1.17578 1.57422,0.48047 c 13.40578,4.08902 27.26437,-2.14258 41.73437,-13.86719 13.13832,-10.64558 27.031,-26.13294 41.73047,-42.77148 -54.04323,121.17224 -133.18685,195.47501 -213.16406,258.99804 27.2438,-76.05176 55.4686,-137.72746 64.56836,-200.69726 9.24165,-63.95173 -1.3366,-129.3464 -52.62696,-212.54297 l -1.75195,0.95703 c 30.3272,63.09451 36.90897,145.55758 21.71875,224.27734 -15.0695,78.09417 -51.58159,152.44484 -107.34765,200.64063 -9.27145,-58.1868 -41.09504,-107.88746 -66.79297,-161.51953 -25.82512,-53.89752 -45.44756,-111.73175 -30.11719,-186.33008 9.38537,3.60366 20.33286,14.50577 31.94726,29.25977 12.05256,15.31058 24.88005,34.63929 37.90235,53.86328 13.02229,19.22398 26.23848,38.3442 39.12305,53.28125 12.88456,14.93705 25.40079,25.76134 37.36914,28.17578 l 3.66992,0.73828 -2.81055,-2.4707 c -5.77707,-5.07901 -15.13484,-18.00083 -26.00391,-34.94727 -10.86906,-16.94644 -23.33128,-37.96291 -35.66406,-59.46094 -24.30776,-42.37234 -47.85892,-86.14894 -58.02344,-104.84961 0.47944,-0.21039 0.95414,-0.46361 1.4961,-0.86523 1.29358,-0.95863 2.88097,-2.46025 4.77539,-4.48633 3.78883,-4.05214 8.77324,-10.18977 14.54297,-18.01172 11.53944,-15.64389 26.20623,-38.0156 40.49023,-63.7168 28.56801,-51.402388 55.64648,-116.065309 52.82422,-166.966795 -1.20762,-21.837769 -6.72147,-38.756599 -20.20703,-54.201169 -12.89557,-14.76888 -33.29562,-28.241916 -63.79688,-43.662106 z m 83.00567,97.919166 c 5.6,101 -107.9,258.400004 -114.7,253.200004 19.8,36.4 96.6,179.7 120.6,200.8 -46.1,-9.3 -107.1,-151.8 -147.3,-165 -31.7,150.9 79.3,233.8 97,351.2 113.5,-96.7 148.1,-300.6 87.2,-427.3 102.4,166.1 42,260.3 -13.3,415.8 82.3,-65.1 164.2,-141.2 219,-267.6 -32.8,37.2 -60.9,69.1 -86.8,61.2 74.7,-76.3 79.1,-194.6 47.4,-289.7 -19.1,27 -21.3,58.7 -39.7,87.8 24.4,-140.500004 -100.9,-318.6 -256.8,-319.5 65.7,32.599996 85,55.699996 87.4,99.099996 z"
       id="path5216" /></clipPath><filter
     inkscape:label="Apparition"
     inkscape:menu="Blurs"
     inkscape:menu-tooltip="Edges are partly feathered out"
     style="color-interpolation-filters:sRGB;"
     id="filter876"><feMorphology
       radius="4"
       in="SourceGraphic"
       result="result0"
       id="feMorphology870" /><feGaussianBlur
       in="result0"
       stdDeviation="8"
       result="result91"
       id="feGaussianBlur872" /><feComposite
       operator="in"
       in="SourceGraphic"
       in2="result91"
       id="feComposite874" /></filter><filter
     inkscape:label="Apparition"
     inkscape:menu="Blurs"
     inkscape:menu-tooltip="Edges are partly feathered out"
     style="color-interpolation-filters:sRGB;"
     id="filter884"
     x="-0.04853879"
     y="-0.025970513"
     width="1.0970776"
     height="1.051941"><feMorphology
       radius="4"
       in="SourceGraphic"
       result="result0"
       id="feMorphology878" /><feGaussianBlur
       in="result0"
       stdDeviation="8"
       result="result91"
       id="feGaussianBlur880" /><feComposite
       operator="in"
       in="SourceGraphic"
       in2="result91"
       id="feComposite882" /></filter><filter
     inkscape:label="Apparition"
     inkscape:menu="Blurs"
     inkscape:menu-tooltip="Edges are partly feathered out"
     style="color-interpolation-filters:sRGB;"
     id="filter892"
     x="-0.057428299"
     y="-0.033112537"
     width="1.1148566"
     height="1.0662251"><feMorphology
       radius="4"
       in="SourceGraphic"
       result="result0"
       id="feMorphology886" /><feGaussianBlur
       in="result0"
       stdDeviation="8"
       result="result91"
       id="feGaussianBlur888" /><feComposite
       operator="in"
       in="SourceGraphic"
       in2="result91"
       id="feComposite890" /></filter></defs><sodipodi:namedview
   id="namedview7"
   pagecolor="#505050"
   bordercolor="#eeeeee"
   borderopacity="1"
   inkscape:pageshadow="0"
   inkscape:pageopacity="0"
   inkscape:pagecheckerboard="0"
   showgrid="false"
   inkscape:zoom="0.42654646"
   inkscape:cx="528.66457"
   inkscape:cy="686.91228"
   inkscape:window-width="1500"
   inkscape:window-height="1000"
   inkscape:window-x="62"
   inkscape:window-y="0"
   inkscape:window-maximized="0"
   inkscape:current-layer="Layer_1" />
<style
   type="text/css"
   id="style2">
	.st0{fill:#0B552E;}
</style>

<g
   id="g841"><path
     id="path5622"
     style="fill:#ff2400;fill-opacity:1;stroke:none;stroke-width:2;stroke-linecap:butt;stroke-linejoin:miter;stroke-miterlimit:4;stroke-dasharray:none;stroke-opacity:1;filter:url(#filter892)"
     d="M 559,509.3 C 619.9,636 585.30079,839.89883 471.80079,936.59883 L 280.15951,1064.2746 v 24.8662 L 545.70118,925.09883 C 601.00118,769.59883 661.4,675.4 559,509.3 Z"
     sodipodi:nodetypes="cccccc" /><path
     class="st0"
     d="m 516.2,296.4 c 5.6,101 -107.9,258.4 -114.7,253.2 19.8,36.4 96.6,179.7 120.6,200.8 C 476,741.1 415,598.6 374.8,585.4 343.1,736.3 454.1,819.2 471.8,936.6 585.3,839.9 619.9,636 559,509.3 661.4,675.4 601,769.6 545.7,925.1 628,860 709.9,783.9 764.7,657.5 731.9,694.7 703.8,726.6 677.9,718.7 752.6,642.4 757,524.1 725.3,429 706.2,456 704,487.7 685.6,516.8 710,376.3 584.7,198.2 428.8,197.3 c 65.7,32.6 85,55.7 87.4,99.1 z"
     id="path4"
     style="fill:#650e00;fill-opacity:1;stroke:none;stroke-width:2;stroke-miterlimit:4;stroke-dasharray:none;stroke-opacity:1;filter:url(#filter884)" /><g
     id="path4-2"
     class="st0"
     transform="translate(57.438058,50.404826)"
     style="filter:url(#filter876)" /></g></svg>
